<svg id="Layer_1" data-name="Layer 1" xmlns="http://www.w3.org/2000/svg" viewBox="0 0 24 24"><defs><style>.cls-1{fill:#878787;fill-rule:evenodd;}</style></defs><path class="cls-1" d="M21.33,0H2.67A2.67,2.67,0,0,0,0,2.67V21.34A2.66,2.66,0,0,0,2.67,24H21.33A2.66,2.66,0,0,0,24,21.34V2.67A2.67,2.67,0,0,0,21.33,0ZM7.26,20.67H3.68V9.12H7.26ZM5.45,7.6A2.13,2.13,0,1,1,7.57,5.47,2.12,2.12,0,0,1,5.45,7.6ZM20.67,20.67H17.11V14.61c0-1.67-.64-2.6-1.95-2.6S13,13,13,14.61v6.06H9.54V9.12H13v1.55a4,4,0,0,1,3.48-1.91c2.45,0,4.21,1.5,4.21,4.59Z"/></svg>