<svg id="Layer_1" data-name="Layer 1" xmlns="http://www.w3.org/2000/svg" viewBox="0 0 24 24"><defs><style>.cls-1{fill:#878787;fill-rule:evenodd;}</style></defs><path class="cls-1" d="M12,0A12.15,12.15,0,0,0,0,12.3,12.27,12.27,0,0,0,8.2,24c.6.1.83-.26.83-.59s0-1.26,0-2.29c-3,.57-3.8-.75-4-1.44a4.37,4.37,0,0,0-1.23-1.74c-.42-.23-1-.8,0-.82a2.42,2.42,0,0,1,1.84,1.26,2.54,2.54,0,0,0,3.5,1,2.58,2.58,0,0,1,.76-1.65c-2.67-.3-5.46-1.37-5.46-6.07A4.88,4.88,0,0,1,5.61,8.35a4.53,4.53,0,0,1,.12-3.26s1-.32,3.3,1.26a11.18,11.18,0,0,1,6,0c2.3-1.6,3.3-1.26,3.3-1.26a4.53,4.53,0,0,1,.12,3.26,4.8,4.8,0,0,1,1.23,3.31c0,4.72-2.81,5.77-5.47,6.07A3,3,0,0,1,15,20c0,1.64,0,3,0,3.38s.22.71.83.59A12.3,12.3,0,0,0,24,12.3,12.15,12.15,0,0,0,12,0Z"/></svg>